<?xml version="1.0" encoding="utf-8"?>
<!-- Generator: Adobe Illustrator 26.0.1, SVG Export Plug-In . SVG Version: 6.00 Build 0)  -->
<svg version="1.1" id="Layer_1" xmlns="http://www.w3.org/2000/svg" xmlns:xlink="http://www.w3.org/1999/xlink" x="0px" y="0px"
	 viewBox="0 0 166 15" style="enable-background:new 0 0 166 15;" xml:space="preserve">
<style type="text/css">
	.st0{fill:#989695;}
</style>
<g>
	<path class="st0" d="M91.9,10.52c0,2.06-1.88,3.71-4.19,3.71l0,0h0H76.15v-2.3h11.52c1.11,0,1.89-0.73,1.89-1.41
		c0-0.67-0.77-1.28-1.75-1.41c-1.83-0.23-5.18-0.64-7.41-0.91l-0.86-0.1c-2.15-0.26-3.7-1.84-3.7-3.69c0-2.02,1.85-3.64,4.12-3.64
		h10.81v2.3H79.98c-0.98,0-1.81,0.6-1.81,1.33c0,0.65,0.72,1.21,1.68,1.33l0.86,0.1c2.24,0.27,5.6,0.68,7.43,0.92
		C90.32,7.04,91.9,8.65,91.9,10.52z M16.28,7.5c0.81,0.71,1.32,1.7,1.32,2.79c0,2.17-2.01,3.94-4.48,3.94H4.48
		C2.01,14.24,0,12.47,0,10.3V4.71c0-2.17,2.01-3.94,4.48-3.94h8.63c2.47,0,4.48,1.77,4.48,3.94C17.6,5.8,17.09,6.79,16.28,7.5z
		 M15.22,10.3c0-0.89-1-1.64-2.18-1.64H2.37v1.64c0,0.89,1,1.64,2.18,1.64h8.49C14.22,11.93,15.22,11.18,15.22,10.3z M15.22,4.71
		c0-0.89-1-1.64-2.18-1.64H4.55c-1.18,0-2.18,0.75-2.18,1.64v1.64h10.67C14.22,6.35,15.22,5.6,15.22,4.71z M158.9,2.23l7.1,11.05
		l-1.97,1.25l-1.8-2.8h-12.45l-1.8,2.8L146,13.28l7.1-11.06c0,0,0,0,0,0l0,0v0c0.72-1.13,1.78-1.78,2.9-1.78
		C157.12,0.45,158.18,1.1,158.9,2.23L158.9,2.23L158.9,2.23C158.9,2.23,158.9,2.23,158.9,2.23z M160.75,9.42l-3.82-5.95l0,0
		c-0.29-0.46-0.61-0.68-0.92-0.68c-0.32,0-0.63,0.23-0.92,0.68l0,0l-3.82,5.95H160.75z M118.95,12.08c-4.18,0-6.5-0.65-6.5-1.8V8.65
		h10.79v-2.3h-10.79V4.72c0-0.22,0-0.8,1.46-1.26c1.14-0.36,2.74-0.54,5.05-0.54c2.68,0,4.58,0.25,5.66,0.75l0.96-2.1
		c-1.42-0.65-3.53-0.95-6.62-0.95c-2.54,0-4.44,0.21-5.81,0.64c-2.54,0.8-3.07,2.32-3.07,3.38v5.64c0,1.2,0.53,2.63,3.06,3.44
		c1.39,0.44,3.29,0.66,5.81,0.66c3.09,0,5.2-0.3,6.62-0.95l-0.96-2.1C123.53,11.83,121.63,12.08,118.95,12.08z M52.05,9.59
		c0.01,0.01,0.02,0.01,0.02,0.02c0.95,0.95,3.28,3.29,3.28,3.29l-1.65,1.65c0,0-2.35-2.36-3.3-3.31c-0.96-0.97-2.25-1.46-3.82-1.48
		h-4.96v4.49h-2.37V4.71c0-2.17,2.01-3.94,4.48-3.94h6.94c2.76,0,5,2.02,5,4.5C55.67,7.32,54.14,9.05,52.05,9.59z M53.3,5.27
		c0-1.21-1.21-2.19-2.69-2.19h-6.8c-1.18,0-2.18,0.75-2.18,1.64v2.74h8.98C52.09,7.46,53.3,6.48,53.3,5.27z M37.1,5.81V9.2
		c0,1.56-1.02,2.97-2.87,3.97c-1.62,0.88-3.76,1.36-6.01,1.36c-2.25,0-4.39-0.48-6.01-1.36c-1.85-1-2.87-2.41-2.87-3.97V5.81
		c0-1.56,1.02-2.97,2.87-3.97c1.62-0.88,3.76-1.36,6.01-1.36c2.25,0,4.39,0.48,6.01,1.36C36.08,2.84,37.1,4.25,37.1,5.81z
		 M34.72,5.81c0-1.43-2.74-3.03-6.5-3.03c-1.85,0-3.57,0.4-4.85,1.09c-1.05,0.57-1.66,1.28-1.66,1.94V9.2c0,1.43,2.74,3.03,6.5,3.03
		c1.85,0,3.57-0.4,4.84-1.09c1.05-0.57,1.66-1.28,1.66-1.94V5.81z M71.98,10.68c0,0.26,0,0.74-1.22,1.11
		c-1.26,0.38-3.08,0.43-4.59,0.43c-3.58,0-6.39-1.66-6.39-3.03V6.1c0-1.43,2.57-3.03,6.1-3.03h7.32v-2.3h-7.32
		c-2.11,0-4.14,0.49-5.71,1.37c-1.79,1.01-2.77,2.42-2.77,3.96V9.2c0,1.55,1.04,2.96,2.93,3.97c1.61,0.87,3.74,1.36,5.83,1.36
		c2.48,0,4.12-0.16,5.33-0.53c2.36-0.72,2.86-2.2,2.86-3.32V6.4h-2.37V10.68z M92.72,3.08h6.74v11.16h2.44V3.08h6.74v-2.3H92.72
		V3.08z M162.96,3.48c-0.32-0.34-0.49-0.76-0.49-1.25c0-0.51,0.16-0.93,0.5-1.27c0.33-0.34,0.75-0.5,1.27-0.5
		c0.52,0,0.94,0.17,1.27,0.51c0.33,0.34,0.5,0.76,0.5,1.26c0,0.5-0.17,0.91-0.5,1.25c-0.33,0.34-0.75,0.51-1.27,0.51
		C163.71,3.99,163.28,3.82,162.96,3.48z M162.77,2.22c0,0.42,0.14,0.77,0.41,1.06c0.27,0.29,0.62,0.43,1.06,0.43
		c0.44,0,0.8-0.14,1.06-0.43c0.27-0.29,0.4-0.64,0.4-1.06c0-0.42-0.14-0.78-0.41-1.07c-0.27-0.29-0.62-0.44-1.05-0.44
		c-0.44,0-0.79,0.15-1.06,0.44C162.9,1.46,162.77,1.81,162.77,2.22z M163.92,3.17h-0.36v-2h0.86c0.19,0,0.35,0.07,0.48,0.2
		c0.13,0.13,0.2,0.29,0.2,0.47c0,0.14-0.04,0.27-0.12,0.37c-0.08,0.1-0.18,0.18-0.3,0.23l0.46,0.73h-0.42l-0.42-0.69h-0.38V3.17z
		 M163.92,2.17h0.5c0.1,0,0.18-0.03,0.24-0.1c0.06-0.06,0.1-0.14,0.1-0.23c0-0.1-0.03-0.17-0.09-0.24
		c-0.06-0.06-0.14-0.09-0.24-0.09h-0.5V2.17z M142.17,11.57c0,0.17-0.07,0.34-0.22,0.45c-0.11,0.09-0.23,0.13-0.36,0.13v0l0,0
		c-0.16,0-0.33-0.06-0.46-0.22l-0.01,0l0-0.01c-2.09-2.58-6.29-7.78-8.39-10.38c-0.56-0.69-1.42-1.08-2.29-1.08l0,0
		c-1.63,0-2.95,1.32-2.95,2.96v10.8h2.37V3.43c0-0.17,0.07-0.34,0.22-0.45c0.11-0.09,0.23-0.13,0.36-0.13v0l0,0
		c0.16,0,0.33,0.06,0.46,0.22c2.1,2.61,8.39,10.39,8.39,10.39h0c0.56,0.69,1.41,1.07,2.28,1.07l0,0c1.63,0,2.95-1.32,2.95-2.96V0.77
		h-2.37V11.57z"/>
</g>
</svg>
