
<svg width="40" height="40" viewBox="0 0 40 40" fill="none" xmlns="http://www.w3.org/2000/svg">
  <rect width="40" height="40" fill="white" fill-opacity="0"/>
  <!-- Porta estilizada -->
  <path d="M8 5H20V35H8C6.89543 35 6 34.1046 6 33V7C6 5.89543 6.89543 5 8 5Z" fill="#1E73BE"/>
  <!-- Pessoa -->
  <circle cx="14" cy="13" r="3" fill="#1E73BE"/>
  <path d="M11 18C11 16.8954 11.8954 16 13 16H15C16.1046 16 17 16.8954 17 18V21H11V18Z" fill="#1E73BE"/>
  <!-- QR Code simplificado -->
  <rect x="23" y="10" width="3" height="3" fill="#333"/>
  <rect x="27" y="10" width="3" height="3" fill="#333"/>
  <rect x="23" y="14" width="3" height="3" fill="#333"/>
  <rect x="27" y="14" width="3" height="3" fill="#333"/>
  <!-- Seta indicando fluxo -->
  <path d="M30 20L34 23L30 26V23H24V21H30V20Z" fill="#1E73BE"/>
</svg>
